<?xml version="1.0" encoding="iso-8859-1"?>
<!-- Generator: Adobe Illustrator 19.0.0, SVG Export Plug-In . SVG Version: 6.00 Build 0)  -->
<svg version="1.1" id="Layer_1" xmlns="http://www.w3.org/2000/svg" xmlns:xlink="http://www.w3.org/1999/xlink" x="0px" y="0px"
	 viewBox="0 0 512.093 512.093" style="enable-background:new 0 0 512.093 512.093;" xml:space="preserve">
<g transform="translate(-1)">
	<g>
		<g>
			<path d="M513.052,498.656v-13.431v-20.548v-26.172v-30.293v-32.904v-34.039V307.62v-31.77v-28.39v-23.509v-17.135
				c0-3.081-0.043-6.17,0-9.259c0.009-0.41-0.008-0.811-0.043-1.195c-0.469-5.146-4.386-7.697-8.303-10.667
				c-2.944-2.236-5.905-4.48-8.858-6.716c-8.576-6.511-17.169-13.03-25.754-19.541c-9.489-7.211-18.995-14.413-28.484-21.615
				c-7.219-5.47-14.43-10.94-21.641-16.41c-1.997-1.51-3.977-3.021-5.965-4.531l-17.801-42.718
				c-5.427-13.03-20.454-19.2-33.476-13.781l-14.976,6.238L262.207,1.734c-3.046-2.313-7.262-2.313-10.308,0L4.432,189.468
				c-4.019,3.081-3.379,8.235-3.379,12.698v14.157v21.086v26.522v30.481v32.956v33.937v33.442v31.462v27.998v23.04v16.606
				c0,2.859,0.026,5.726,0.034,8.585c0.009,2.551,0.512,4.881,2.313,6.81c1.997,2.116,4.591,2.756,7.39,2.756
				c3.567-0.008,7.125,0,10.692,0h32.452h48.393h59.665h66.295h68.258c21.845,0,43.708-0.008,65.562-0.008h58.214h46.2h29.542
				c4.804,0,11.358,0.939,14.797-2.944C513.479,506.106,513.052,502.308,513.052,498.656z M479.15,187.735h-35.618l-16.469-39.518
				L479.15,187.735z M482.213,204.802l-22.997,20.608l-8.576-20.608H482.213z M400.131,194.955c0.154,0.171,2.125,3.49,3.294,9.583
				c1.587,8.149,0.742,16.538-2.406,24.252l-12.851,31.087c-1.348,3.285-4.531,5.274-7.885,5.282c-1.024,0-2.065-0.188-3.081-0.58
				l-31.343-12.134c-7.791-3.055-14.438-8.235-19.251-15.002c-3.593-5.043-4.642-8.747-4.873-9.762
				c-4.941-14.626,0.614-29.79,13.44-35.285c5.495-2.347,11.605-2.475,17.348-0.58c2.586-5.461,6.886-9.805,12.382-12.16
				C377.714,174.193,392.545,180.602,400.131,194.955z M267.548,275.689c4.344-1.801,9.344,0.239,11.162,4.591
				c1.818,4.352-0.239,9.353-4.591,11.162l-99.396,41.412l-14.08-12.621L267.548,275.689z M147.425,298.003
				c-1.075,0.452-2.185,0.666-3.277,0.666c-3.345,0-6.511-1.98-7.876-5.257c-1.818-4.352,0.239-9.344,4.591-11.162l141.781-59.076
				c4.343-1.809,9.344,0.239,11.162,4.591c1.818,4.352-0.247,9.344-4.591,11.162L147.425,298.003z M347.506,325.574l-20.011,17.937
				h-0.009l-70.434,63.155l-33.05-29.636L347.506,325.574z M376.622,138.071c4.335-1.801,9.344,0.256,11.153,4.608
				c1.809,4.352-0.256,9.344-4.608,11.153l-252.16,104.789c-1.067,0.444-2.176,0.657-3.268,0.657c-3.345,0-6.519-1.98-7.885-5.257
				c-1.809-4.361,0.256-9.353,4.608-11.153L376.622,138.071z M114.614,219.232c-1.075,0.452-2.185,0.666-3.285,0.666
				c-3.345,0-6.511-1.98-7.876-5.257c-1.818-4.352,0.239-9.344,4.591-11.162l78.771-32.819c4.335-1.801,9.335,0.239,11.153,4.591
				c1.818,4.352-0.239,9.344-4.591,11.162L114.614,219.232z M257.052,19.245l72.465,54.972L79.158,178.537
				c-2.091,0.879-3.942,2.074-5.658,3.388c-0.452,0.35-0.879,0.717-1.306,1.092c-1.527,1.348-2.91,2.816-4.062,4.454
				c-0.06,0.102-0.171,0.162-0.239,0.265H34.955L257.052,19.245z M63.662,204.802c0.247,2.424,0.734,4.847,1.715,7.211
				l15.164,36.403l-48.648-43.614H63.662z M18.119,484.346V215.375l79.113,70.921v0.009l70.886,63.565L18.119,484.346z
				 M31.892,494.935L180.91,361.329l21.615,19.388l0.026,0.009l48.802,43.759c3.251,2.91,8.149,2.91,11.401,0l70.443-63.155
				l28.262,25.344l120.755,108.262H31.892z M495.986,484.346L356.594,359.383l-10.615-9.523l50.355-45.15l0.017-0.009l65.323-58.556
				v-0.008l34.313-30.763V484.346z"/>
			<path d="M371.619,195.349c-3.729,1.596-4.924,6.195-4.804,9.643c0.119,3.516-1.937,6.741-5.171,8.132
				c-3.234,1.382-6.989,0.649-9.455-1.877c-1.852-1.894-4.736-3.695-7.671-3.695c-0.879,0-1.766,0.162-2.62,0.529
				c-4.975,2.133-5.658,9.301-3.763,14.95c0.154,0.521,0.64,2.074,2.381,4.514c2.884,4.062,6.869,7.168,11.537,8.994l23.535,9.114
				l9.651-23.356c1.877-4.608,2.381-9.634,1.442-14.515c-0.58-2.953-1.365-4.369-1.374-4.386
				C382.252,197.661,376.603,193.216,371.619,195.349z"/>
		</g>
	</g>
</g>
<g>
</g>
<g>
</g>
<g>
</g>
<g>
</g>
<g>
</g>
<g>
</g>
<g>
</g>
<g>
</g>
<g>
</g>
<g>
</g>
<g>
</g>
<g>
</g>
<g>
</g>
<g>
</g>
<g>
</g>
</svg>
